<svg width="1000" height="207" viewBox="0 0 1000 207" fill="none" xmlns="http://www.w3.org/2000/svg">
<g clip-path="url(#clip0_39_194)">
<path d="M129.391 23.4815H143.555L115.766 107.116L87.2414 23.4815H101.602V18.8733H71.1168L83.1735 52.8956L64.5983 106.773L34.6035 23.4815H48.9638V18.8733H10V23.4815H20.4394L53.0317 114.518C55.3842 121.234 57.5407 124.96 59.4031 125.696C60.0893 125.941 60.8244 126.039 61.5106 126.039H62.9319L85.9671 61.0336L104.934 114.518C107.042 120.548 108.757 123.931 110.081 124.617C110.816 124.96 111.698 125.156 112.727 125.156H114.148L149.191 23.4815H158.062V18.8733H129.391V23.4815Z" fill="white"/>
<path d="M250.105 120.891C249.615 120.793 249.027 120.695 248.341 120.695H239.47V76.7701C239.47 63.8769 235.206 55.1507 226.727 50.5425C223.443 48.8757 219.865 48.0423 216.091 48.0423C207.367 48.0423 200.016 51.2288 194.135 57.6019C191.635 60.2982 189.773 63.3867 188.449 66.8183V10H161.885V14.4121H175.167V110.057C175.167 115.499 173.648 118.734 170.56 119.813C168.796 120.401 165.904 120.695 161.885 120.695V125.107H201.731C201.731 122.509 200.849 121.087 199.085 120.842C198.595 120.744 198.006 120.646 197.32 120.646H188.449V82.3588C188.449 71.6226 192.174 63.8279 199.624 58.9745C202.711 56.9646 205.897 55.9841 209.181 55.9841C216.386 55.9841 221.385 59.3667 224.227 66.0829C225.502 69.2695 226.188 72.7992 226.188 76.7211V110.008C226.188 115.45 224.864 118.685 222.267 119.764C220.6 120.352 217.758 120.646 213.788 120.646V125.058H252.752C252.752 122.46 251.87 121.038 250.105 120.793V120.891Z" fill="white"/>
<path d="M326.758 82.4568C329.944 80.1037 331.561 76.7211 331.561 72.358C331.561 64.3181 327.493 57.945 319.358 53.2388C313.574 49.8071 306.909 48.0913 299.361 48.0913C284.609 48.0913 274.022 54.2193 267.651 66.5242C264.367 72.8972 262.701 80.1037 262.701 88.1436C262.701 102.802 267.945 113.636 278.482 120.744C284.756 124.862 291.862 126.921 299.9 126.921C312.643 126.921 322.053 122.313 328.082 113.097C329.013 111.43 329.846 109.812 330.581 108.145L326.17 106.527C322.053 115.499 315.388 120.597 306.174 121.774C304.997 121.872 303.87 121.97 302.792 121.97C290.392 121.97 282.599 114.567 279.414 99.8112C278.482 95.6932 277.943 91.134 277.796 86.1826L299.067 86.5258C313.476 86.7709 322.739 85.3982 326.856 82.4568H326.758ZM277.698 81.2312C278.286 67.6517 282.697 58.7784 290.98 54.6605C293.676 53.2388 296.568 52.5525 299.655 52.5525C307.938 52.5525 313.427 56.0331 316.123 62.9945C317.054 65.2496 317.544 67.6517 317.544 70.25C317.544 76.1328 314.702 79.7605 309.065 81.0351C306.125 81.6234 301.91 81.8685 296.47 81.7215L277.698 81.1822V81.2312Z" fill="white"/>
<path d="M396.501 49.1698C395.325 48.9247 394.197 48.8267 393.119 48.8267C386.013 48.8267 379.69 51.8171 374.152 57.847C371.554 60.6904 369.496 63.8769 367.977 67.4066L367.241 49.8562H341.56V54.2683H354.842V110.057C354.842 115.499 353.322 118.734 350.235 119.813C348.47 120.401 345.578 120.695 341.56 120.695V125.107H385.277C385.277 122.509 384.395 121.087 382.631 120.842C382.141 120.744 381.553 120.646 380.866 120.646H368.124V85.3982C368.124 74.6621 371.407 66.0339 378.024 59.5138C380.621 57.0136 382.827 55.739 384.591 55.5919C386.601 55.5919 388.414 57.0626 390.08 60.004C391.943 63.2886 393.756 65.2005 395.374 65.6908C396.109 65.9359 396.795 66.0339 397.481 66.0339C401.01 66.0339 403.264 64.3181 404.196 60.8865C404.441 60.2001 404.539 59.4648 404.539 58.7784C404.539 53.4839 401.843 50.1993 396.403 49.0228L396.501 49.1698Z" fill="white"/>
<path d="M474.918 82.4568C478.104 80.1037 479.673 76.7211 479.673 72.358C479.673 64.3181 475.605 57.945 467.469 53.2388C461.685 49.8071 455.02 48.0913 447.472 48.0913C432.72 48.0913 422.134 54.2193 415.762 66.5242C412.478 72.8972 410.812 80.1037 410.812 88.1436C410.812 102.802 416.056 113.636 426.594 120.744C432.867 124.862 439.974 126.921 448.011 126.921C460.754 126.921 470.164 122.313 476.193 113.097C477.124 111.43 477.957 109.812 478.692 108.145L474.281 106.527C470.164 115.499 463.499 120.597 454.285 121.774C453.109 121.872 451.981 121.97 450.903 121.97C438.503 121.97 430.711 114.567 427.525 99.8112C426.594 95.6932 426.054 91.134 425.907 86.1826L447.178 86.5258C461.587 86.7709 470.851 85.3982 474.967 82.4568H474.918ZM425.858 81.2312C426.447 67.6517 430.858 58.7784 439.14 54.6605C441.836 53.2388 444.728 52.5525 447.815 52.5525C456.098 52.5525 461.587 56.0331 464.283 62.9945C465.214 65.2496 465.704 67.6517 465.704 70.25C465.704 76.1328 462.862 79.7605 457.225 81.0351C454.285 81.6234 450.07 81.8685 444.63 81.7215L425.858 81.1822V81.2312Z" fill="white"/>
<path d="M491.141 18.8733L490.259 53.7781H495.209L498.052 41.9144C501.826 30.3448 508.246 24.2169 517.362 23.4815H526.919V120.548H510.109V125.156H558.826C558.826 122.558 557.894 121.087 555.983 120.744C555.395 120.646 554.807 120.548 554.219 120.548H542.162V23.4815H552.454C562.011 23.4815 568.383 29.2663 571.568 40.8358C571.568 41.3261 571.618 41.6692 571.765 41.9144L574.607 53.7781H579.557L578.675 18.8733H491.19H491.141Z" fill="white"/>
<path d="M667.679 87.4082C667.679 72.505 662.19 61.4747 651.211 54.2683C644.742 50.1503 637.586 48.0913 629.793 48.0913C618.472 48.0913 609.013 51.9642 601.465 59.7589C594.505 66.9654 591.026 75.9367 591.026 86.6728C591.026 101.576 596.466 112.704 607.297 120.156C613.914 124.666 621.216 126.872 629.254 126.872C640.576 126.872 649.986 122.852 657.436 114.812C664.297 107.508 667.728 98.3405 667.728 87.3592L667.679 87.4082ZM636.361 121.627C634.253 122.215 632.048 122.509 629.793 122.509C617.884 122.509 610.385 115.401 607.297 101.233C606.464 97.1149 606.072 92.5067 606.072 87.4082C606.072 69.1224 611.071 57.945 621.118 53.9251C623.716 52.9937 626.412 52.5034 629.254 52.5034C642.34 52.5034 649.986 60.7884 652.093 77.3093C652.436 80.1527 652.632 83.2902 652.632 86.7219C652.632 106.576 647.192 118.195 636.361 121.627Z" fill="white"/>
<path d="M742.029 72.0148C739.774 70.8382 732.863 67.7007 721.297 62.6023C710.809 58.0921 704.192 53.5329 701.447 48.7776C700.026 46.1794 699.34 43.385 699.34 40.4436C699.34 32.5508 703.163 27.0602 710.858 23.9717C714.141 22.6481 717.817 22.0108 721.836 22.0108C731.736 22.0108 739.333 25.3934 744.528 32.1096C747.959 36.7178 749.625 42.3065 749.478 48.9247H754.771V17.9908C751.929 17.9908 750.262 18.8732 749.821 20.6381C749.576 21.4715 749.478 22.599 749.478 24.0207C741.097 19.4125 731.638 17.1084 721.15 17.1084C708.407 17.1084 698.458 20.6381 691.4 27.7465C686.695 32.6979 684.294 38.4827 684.294 45.1008C684.294 55.0036 689.832 63.0925 700.957 69.3675C702.967 70.446 709.681 73.4365 721.15 78.3878C731.785 83.0941 738.5 87.8984 741.342 92.7517C742.862 95.448 743.646 98.4385 743.646 101.625C743.646 109.91 739.627 115.842 731.589 119.519C727.815 121.185 723.6 122.019 718.993 122.019C700.908 121.774 690.91 110.743 688.901 88.8789H683.607V125.549C686.45 125.549 688.116 124.715 688.558 123.048C688.803 122.117 688.901 120.401 688.901 117.901C697.968 123.931 708.309 126.921 719.876 126.921C733.452 126.921 743.94 123.244 751.39 115.94C756.487 110.743 758.986 104.566 758.986 97.36C758.986 86.8689 753.301 78.3878 741.98 72.0148H742.029Z" fill="white"/>
<path d="M795.304 29.3153L782.022 33.0411V49.8562H769.622V54.2683H782.022V104.223C782.855 118.979 789.618 126.627 802.41 127.068C813.291 127.068 820.054 120.401 822.799 107.067V106.723L817.996 105.841C815.055 115.646 810.742 120.94 805.057 121.774C798.685 121.529 795.451 116.969 795.304 108.145V54.2683H822.75V49.8562H795.304V29.3153Z" fill="white"/>
<path d="M876.564 110.988C877.985 121.48 882.838 126.823 891.071 126.921C900.187 126.921 905.187 121.43 906.118 110.449C906.216 109.763 906.314 109.077 906.314 108.488L901.707 108.292C900.874 116.92 898.57 121.283 894.796 121.381C891.709 121.136 890.14 118.097 890.042 112.165V74.8091C890.042 57.896 881.612 49.0227 864.703 48.0422H861.518C848.285 48.0422 839.414 51.1307 834.954 57.2587C833.532 59.2686 832.846 61.2786 832.846 63.2886C832.846 66.9653 834.562 69.0733 837.992 69.6616C838.581 69.7597 839.169 69.8577 839.757 69.8577C842.452 69.8577 844.462 68.1419 845.785 64.7102C847.452 60.3471 848.579 57.7489 849.167 56.9155C851.421 53.9741 854.901 52.5034 859.606 52.5034C870.683 53.1897 876.417 59.3177 876.76 70.7401V81.9175C849.02 81.9175 833.14 87.7023 829.121 99.2718C828.435 101.527 828.043 103.929 828.043 106.527C828.043 115.499 832.013 121.627 839.904 124.96C843.09 126.235 846.471 126.921 850 126.921C858.626 126.921 865.88 123.98 871.81 118.048C873.918 115.793 875.535 113.44 876.564 110.939V110.988ZM863.821 118.048C861.126 119.224 858.43 119.813 855.832 119.813C848.628 119.813 844.217 116.234 842.55 109.028C842.207 107.361 842.011 105.547 842.011 103.537C842.011 95.6441 846.569 90.5947 855.636 88.4867C860.488 87.4081 867.497 86.8199 876.711 86.7218V100.89C874.947 109.028 870.634 114.763 863.772 118.097L863.821 118.048Z" fill="white"/>
<path d="M963.314 49.8562V54.4644H976.253L953.609 111.136L929.349 54.4644H941.21V49.8562H906.657V54.4644H915.332L947.189 125.156C940.573 140.746 934.397 149.766 928.614 152.266C926.947 152.953 925.281 153.345 923.664 153.345C921.801 153.345 920.38 151.923 919.4 149.08C918.125 145.55 916.851 143.344 915.675 142.511C914.597 141.824 913.371 141.432 911.95 141.432C908.176 141.432 905.971 143.099 905.383 146.384C905.285 146.874 905.187 147.266 905.187 147.609C905.187 152.119 907.784 155.355 912.979 157.365C915.332 158.296 917.831 158.786 920.429 158.786C929.741 158.786 937.828 153.051 944.689 141.579C947.532 136.971 950.228 131.48 952.825 125.107L979.046 60.4452C980.222 57.1607 981.546 55.2487 982.967 54.7585C983.8 54.5134 984.731 54.4153 985.81 54.4153C988.162 54.4153 989.535 53.778 989.878 52.4544C990.123 51.7681 990.221 50.8366 990.221 49.8071H963.314V49.8562Z" fill="white"/>
<path d="M323.033 170.013L313.427 157.071H308.183L320.681 173.788V188.446H325.288V173.788L337.786 157.071H332.591L323.033 170.013Z" fill="white"/>
<path d="M356.263 167.562C354.645 166.63 352.783 166.189 350.627 166.189C348.47 166.189 346.608 166.63 344.99 167.562C343.373 168.493 342.148 169.817 341.265 171.484C340.383 173.2 339.942 175.21 339.942 177.465C339.942 179.72 340.383 181.681 341.265 183.396C342.148 185.112 343.373 186.436 344.99 187.318C346.608 188.25 348.47 188.691 350.627 188.691C352.783 188.691 354.645 188.25 356.263 187.318C357.88 186.387 359.105 185.063 359.988 183.396C360.87 181.681 361.311 179.72 361.311 177.465C361.311 175.21 360.87 173.2 359.988 171.484C359.105 169.768 357.88 168.444 356.263 167.562ZM355.185 183.249C354.155 184.573 352.587 185.21 350.627 185.21C348.666 185.21 347.098 184.573 346.069 183.249C345.039 181.926 344.5 180.014 344.5 177.514C344.5 175.013 345.039 173.102 346.118 171.778C347.196 170.454 348.715 169.817 350.676 169.817C352.636 169.817 354.155 170.454 355.234 171.778C356.312 173.102 356.851 175.013 356.851 177.514C356.851 180.014 356.312 181.975 355.283 183.249H355.185Z" fill="white"/>
<path d="M385.719 178.935C385.719 180.798 385.179 182.318 384.15 183.445C383.121 184.573 381.7 185.161 379.935 185.161C378.465 185.161 377.338 184.769 376.651 183.936C375.916 183.102 375.573 181.828 375.573 180.063V166.777H371.064V180.112C371.064 185.946 373.711 188.838 379.004 188.838C380.474 188.838 381.847 188.495 383.023 187.857C384.199 187.22 385.179 186.24 385.866 185.014V188.544H390.228V166.826H385.719V179.033V178.935Z" fill="white"/>
<path d="M412.822 166.287C409.244 166.532 406.891 167.954 405.764 170.503V166.728H401.402V188.446H405.911V176.386C405.911 174.719 406.401 173.297 407.332 172.219C408.264 171.14 409.783 170.454 411.939 170.258L414.635 170.013L414.341 166.238L412.871 166.336L412.822 166.287Z" fill="white"/>
<path d="M455.02 170.307C454.383 168.984 453.403 168.003 452.128 167.268C450.854 166.532 449.384 166.189 447.717 166.189C445.806 166.189 444.14 166.63 442.669 167.562C441.199 168.493 440.072 169.719 439.238 171.386C438.405 173.003 438.013 174.915 438.013 177.023C438.013 179.131 438.405 181.043 439.238 182.661C440.072 184.279 441.199 185.554 442.669 186.436C444.14 187.318 445.855 187.76 447.766 187.76C449.482 187.76 450.952 187.416 452.226 186.681C453.501 185.946 454.432 184.916 455.069 183.642V187.073C455.069 191.191 453.06 193.25 448.992 193.25C447.472 193.25 446.051 193.054 444.728 192.662C443.404 192.27 442.032 191.583 440.611 190.701L439.238 193.937C440.562 194.868 442.032 195.554 443.698 196.045C445.365 196.535 447.129 196.78 449.041 196.78C452.471 196.78 455.069 195.947 456.833 194.231C458.598 192.515 459.48 190.015 459.48 186.73V166.728H455.02V170.307ZM453.354 182.318C452.275 183.593 450.756 184.23 448.796 184.23C446.835 184.23 445.365 183.593 444.189 182.318C443.061 181.043 442.473 179.278 442.473 177.023C442.473 174.768 443.012 173.003 444.14 171.729C445.267 170.454 446.786 169.817 448.747 169.817C450.707 169.817 452.226 170.454 453.305 171.729C454.383 173.003 454.922 174.768 454.922 177.023C454.922 179.278 454.383 181.043 453.256 182.318H453.354Z" fill="white"/>
<path d="M475.115 157.071H470.606V188.446H475.115V157.071Z" fill="white"/>
<path d="M501.336 167.562C499.718 166.63 497.856 166.189 495.699 166.189C493.543 166.189 491.68 166.63 490.063 167.562C488.446 168.493 487.22 169.817 486.338 171.484C485.456 173.151 485.015 175.21 485.015 177.465C485.015 179.72 485.456 181.681 486.338 183.396C487.22 185.112 488.446 186.436 490.063 187.318C491.68 188.201 493.543 188.691 495.699 188.691C497.856 188.691 499.718 188.25 501.336 187.318C502.953 186.387 504.227 185.063 505.06 183.396C505.943 181.681 506.384 179.72 506.384 177.465C506.384 175.21 505.943 173.2 505.06 171.484C504.178 169.768 502.953 168.444 501.336 167.562ZM500.306 183.249C499.277 184.573 497.758 185.21 495.748 185.21C493.739 185.21 492.22 184.573 491.19 183.249C490.161 181.926 489.622 180.014 489.622 177.514C489.622 175.013 490.161 173.102 491.239 171.778C492.318 170.454 493.837 169.817 495.797 169.817C497.758 169.817 499.277 170.454 500.355 171.778C501.434 173.102 501.973 175.013 501.973 177.514C501.973 180.014 501.434 181.975 500.404 183.249H500.306Z" fill="white"/>
<path d="M532.997 167.562C531.526 166.63 529.86 166.189 527.949 166.189C526.331 166.189 524.861 166.532 523.636 167.268C522.41 168.003 521.43 168.984 520.793 170.307V157.071H516.284V188.446H520.793V184.72C521.43 186.044 522.41 187.024 523.636 187.711C524.861 188.397 526.331 188.74 527.949 188.74C529.811 188.74 531.477 188.25 532.948 187.318C534.418 186.387 535.545 185.014 536.378 183.298C537.212 181.583 537.604 179.622 537.604 177.367C537.604 175.111 537.212 173.151 536.378 171.435C535.545 169.768 534.418 168.444 532.997 167.513V167.562ZM531.379 183.151C530.301 184.524 528.782 185.21 526.87 185.21C524.959 185.21 523.391 184.524 522.361 183.2C521.332 181.877 520.793 179.965 520.793 177.514C520.793 175.062 521.332 173.151 522.361 171.827C523.391 170.503 524.91 169.817 526.87 169.817C528.831 169.817 530.35 170.454 531.428 171.778C532.507 173.102 533.046 174.964 533.046 177.416C533.046 179.867 532.507 181.779 531.428 183.151H531.379Z" fill="white"/>
<path d="M556.571 166.189C555.052 166.189 553.483 166.434 551.817 166.925C550.151 167.415 548.778 168.052 547.602 168.836L548.925 171.974C551.376 170.454 553.875 169.719 556.326 169.719C557.894 169.719 559.022 170.111 559.708 170.846C560.394 171.582 560.737 172.807 560.737 174.474V175.749H559.708C556.424 175.749 553.826 175.945 551.964 176.337C550.102 176.729 548.729 177.367 547.896 178.298C547.063 179.229 546.671 180.455 546.671 182.024C546.671 183.298 547.014 184.475 547.651 185.504C548.337 186.534 549.268 187.367 550.445 187.956C551.621 188.544 552.944 188.838 554.366 188.838C555.787 188.838 557.159 188.495 558.286 187.858C559.414 187.171 560.247 186.24 560.786 184.965V188.593H565.099V175.161C565.099 172.17 564.413 169.964 562.991 168.542C561.57 167.121 559.414 166.336 556.522 166.336L556.571 166.189ZM560.786 179.475C560.786 181.239 560.247 182.661 559.218 183.789C558.188 184.916 556.865 185.455 555.199 185.455C554.022 185.455 553.042 185.112 552.307 184.426C551.572 183.74 551.18 182.857 551.18 181.828C551.18 180.896 551.425 180.21 551.964 179.72C552.503 179.229 553.385 178.886 554.66 178.69C555.934 178.494 557.698 178.396 560.002 178.396H560.786V179.573V179.475Z" fill="white"/>
<path d="M580.733 157.071H576.224V188.446H580.733V157.071Z" fill="white"/>
<path d="M617.051 183.396L610.287 166.777H605.582L614.943 188.446H618.962L628.421 166.777H623.912L617.051 183.396Z" fill="white"/>
<path d="M641.066 166.728H636.557V188.446H641.066V166.728Z" fill="white"/>
<path d="M641.409 157.022H636.263V161.679H641.409V157.022Z" fill="white"/>
<path d="M656.75 157.071H652.24V188.446H656.75V157.071Z" fill="white"/>
<path d="M672.384 157.071H667.875V188.446H672.384V157.071Z" fill="white"/>
<path d="M692.626 166.189C691.106 166.189 689.538 166.434 687.872 166.925C686.205 167.415 684.833 168.052 683.657 168.836L684.98 171.974C687.43 170.454 689.93 169.719 692.381 169.719C693.949 169.719 695.076 170.111 695.811 170.846C696.497 171.582 696.841 172.807 696.841 174.474V175.749H695.811C692.528 175.749 689.93 175.945 688.068 176.337C686.156 176.729 684.833 177.367 684 178.298C683.167 179.229 682.774 180.455 682.774 182.024C682.774 183.298 683.117 184.475 683.755 185.504C684.441 186.534 685.323 187.367 686.548 187.956C687.773 188.544 689.048 188.838 690.469 188.838C691.89 188.838 693.263 188.495 694.341 187.858C695.468 187.171 696.301 186.24 696.841 184.965V188.593H701.154V175.161C701.154 172.17 700.467 169.964 699.046 168.542C697.625 167.072 695.468 166.336 692.577 166.336L692.626 166.189ZM696.89 179.475C696.89 181.239 696.35 182.661 695.321 183.789C694.292 184.916 692.969 185.455 691.302 185.455C690.126 185.455 689.146 185.112 688.411 184.426C687.675 183.74 687.283 182.857 687.283 181.828C687.283 180.896 687.578 180.21 688.068 179.72C688.558 179.229 689.489 178.886 690.763 178.69C691.988 178.494 693.802 178.396 696.105 178.396H696.89V179.573V179.475Z" fill="white"/>
<path d="M738.108 166.189C736.098 166.189 734.285 166.679 732.717 167.611C731.148 168.542 729.923 169.915 729.041 171.631C728.159 173.347 727.718 175.308 727.718 177.563C727.718 181.043 728.698 183.789 730.707 185.799C732.717 187.809 735.461 188.789 738.941 188.789C740.46 188.789 741.98 188.544 743.499 188.054C744.969 187.563 746.244 186.877 747.224 185.995L745.852 182.857C743.842 184.475 741.588 185.308 739.088 185.308C734.824 185.308 732.57 183.004 732.227 178.396H747.567V176.974C747.567 173.641 746.734 170.994 745.067 169.082C743.401 167.17 741.098 166.238 738.157 166.238L738.108 166.189ZM732.227 175.749C732.423 173.739 733.06 172.17 734.089 171.092C735.118 170.013 736.491 169.474 738.206 169.474C739.921 169.474 741.196 170.013 742.127 171.092C743.058 172.17 743.548 173.739 743.646 175.749H732.227Z" fill="white"/>
<path d="M776.876 166.728H771.484L765.701 174.082L759.967 166.728H754.527L763.103 177.268L754.036 188.446H759.428L765.701 180.504L772.023 188.446H777.415L768.299 177.268L776.876 166.728Z" fill="white"/>
<path d="M802.067 167.611C800.597 166.679 798.93 166.189 797.068 166.189C795.451 166.189 793.98 166.532 792.755 167.268C791.53 168.003 790.55 168.984 789.912 170.307V166.728H785.403V196.486H789.912V184.72C790.55 186.044 791.53 187.024 792.755 187.711C793.98 188.397 795.451 188.74 797.068 188.74C798.979 188.74 800.646 188.299 802.116 187.367C803.586 186.436 804.714 185.161 805.498 183.446C806.282 181.779 806.723 179.818 806.723 177.563C806.723 175.308 806.331 173.298 805.498 171.582C804.665 169.866 803.537 168.542 802.067 167.562V167.611ZM800.548 183.2C799.47 184.524 797.95 185.161 795.99 185.161C794.029 185.161 792.51 184.475 791.481 183.151C790.452 181.828 789.912 179.916 789.912 177.465C789.912 175.013 790.452 173.102 791.481 171.778C792.51 170.454 794.029 169.768 795.99 169.768C797.95 169.768 799.421 170.454 800.499 171.827C801.577 173.2 802.116 175.111 802.116 177.563C802.116 180.014 801.577 181.877 800.499 183.2H800.548Z" fill="white"/>
<path d="M825.789 166.189C823.779 166.189 821.966 166.679 820.397 167.611C818.829 168.542 817.555 169.915 816.722 171.631C815.839 173.347 815.398 175.308 815.398 177.563C815.398 181.043 816.378 183.789 818.388 185.799C820.397 187.809 823.142 188.789 826.622 188.789C828.141 188.789 829.66 188.544 831.18 188.054C832.65 187.563 833.924 186.877 834.905 185.995L833.532 182.857C831.523 184.475 829.268 185.308 826.769 185.308C822.505 185.308 820.25 183.004 819.907 178.396H835.248V176.974C835.248 173.641 834.414 170.994 832.748 169.082C831.082 167.17 828.778 166.238 825.838 166.238L825.789 166.189ZM819.907 175.749C820.103 173.739 820.74 172.17 821.77 171.092C822.799 170.013 824.171 169.474 825.887 169.474C827.602 169.474 828.876 170.013 829.807 171.092C830.739 172.17 831.278 173.739 831.327 175.749H819.858H819.907Z" fill="white"/>
<path d="M856.469 166.287C852.892 166.532 850.539 167.954 849.412 170.503V166.728H845.05V188.446H849.559V176.386C849.559 174.719 850.049 173.297 850.98 172.219C851.911 171.14 853.431 170.454 855.587 170.258L858.283 170.013L857.989 166.238L856.518 166.336L856.469 166.287Z" fill="white"/>
<path d="M873.966 180.504V170.16H879.946V166.679H873.966V160.11H869.457V166.679H865.242V170.16H869.457V180.651C869.457 183.249 870.144 185.259 871.516 186.632C872.888 188.005 874.996 188.691 877.838 188.691C878.622 188.691 879.407 188.642 880.142 188.495L880.338 185.063C879.701 185.161 879.015 185.21 878.328 185.21C875.388 185.21 873.917 183.641 873.917 180.455L873.966 180.504Z" fill="white"/>
<path d="M899.109 176.288L895.433 175.454C894.355 175.209 893.571 174.866 893.081 174.425C892.591 173.984 892.345 173.346 892.345 172.611C892.345 171.68 892.738 170.944 893.522 170.405C894.306 169.866 895.384 169.621 896.756 169.621C899.06 169.621 901.265 170.454 903.373 172.17L904.745 169.032C903.716 168.15 902.54 167.464 901.119 166.973C899.746 166.483 898.276 166.238 896.707 166.238C894.11 166.238 892.051 166.826 890.434 168.052C888.866 169.278 888.032 170.846 888.032 172.807C888.032 174.327 888.523 175.651 889.503 176.631C890.483 177.661 891.953 178.347 893.865 178.837L897.492 179.621C898.766 179.916 899.648 180.308 900.187 180.749C900.726 181.19 900.971 181.779 900.971 182.563C900.971 183.445 900.579 184.132 899.795 184.622C899.011 185.112 897.933 185.357 896.462 185.357C893.522 185.357 890.924 184.475 888.67 182.759L887.297 185.995C889.552 187.857 892.542 188.74 896.315 188.74C899.011 188.74 901.167 188.152 902.736 187.024C904.304 185.896 905.137 184.328 905.137 182.367C905.137 180.749 904.647 179.474 903.667 178.494C902.687 177.513 901.118 176.778 899.011 176.288H899.109Z" fill="white"/>
</g>
<defs>
<clipPath id="clip0_39_194">
<rect width="980" height="187" fill="white" transform="translate(10 10)"/>
</clipPath>
</defs>
</svg>
